HIERARCHY
ROOT Hips
{
	OFFSET 0.000000 0.000000 0.000000
	CHANNELS 6 Xposition Yposition Zposition Zrotation Yrotation Xrotation 
	JOINT LHipJoint
	{
		OFFSET 0.000000 0.000000 0.000000
		CHANNELS 3 Zrotation Yrotation Xrotation
		JOINT LeftUpLeg
		{
			OFFSET 1.363060 -1.794630 0.839290
			CHANNELS 3 Zrotation Yrotation Xrotation
			JOINT LeftLeg
			{
				OFFSET 2.448110 -6.726130 0.000000
				CHANNELS 3 Zrotation Yrotation Xrotation
				JOINT LeftFoot
				{
					OFFSET 2.562200 -7.039590 0.000000
					CHANNELS 3 Zrotation Yrotation Xrotation
					JOINT LeftToeBase
					{
						OFFSET 0.157640 -0.433110 2.322550
						CHANNELS 3 Zrotation Yrotation Xrotation
						End Site
						{
							OFFSET 0.000000 0.000000 0.000000
						}
					}
				}
			}
		}
	}
	JOINT RHipJoint
	{
		OFFSET 0.000000 0.000000 0.000000
		CHANNELS 3 Zrotation Yrotation Xrotation
		JOINT RightUpLeg
		{
			OFFSET -1.305520 -1.794630 0.839290
			CHANNELS 3 Zrotation Yrotation Xrotation
			JOINT RightLeg
			{
				OFFSET -2.542530 -6.985550 0.000000
				CHANNELS 3 Zrotation Yrotation Xrotation
				JOINT RightFoot
				{
					OFFSET -2.568260 -7.056230 0.000000
					CHANNELS 3 Zrotation Yrotation Xrotation
					JOINT RightToeBase
					{
						OFFSET -0.164730 -0.452590 2.363150
						CHANNELS 3 Zrotation Yrotation Xrotation
						End Site
						{
							OFFSET 0.000000 0.000000 0.000000
						}
					}
				}
			}
		}
	}
	JOINT LowerBack
	{
		OFFSET 0.000000 0.000000 0.000000
		CHANNELS 3 Zrotation Yrotation Xrotation
		JOINT Spine
		{
			OFFSET 0.028270 2.035590 -0.193380
			CHANNELS 3 Zrotation Yrotation Xrotation
			JOINT Spine1
			{
				OFFSET 0.056720 2.048850 -0.042750
				CHANNELS 3 Zrotation Yrotation Xrotation
				JOINT Neck
				{
					OFFSET 0.000000 0.000000 0.000000
					CHANNELS 3 Zrotation Yrotation Xrotation
					JOINT Neck1
					{
						OFFSET -0.054170 1.746240 0.172020
						CHANNELS 3 Zrotation Yrotation Xrotation
						JOINT Head
						{
							OFFSET 0.104070 1.761360 -0.123970
							CHANNELS 3 Zrotation Yrotation Xrotation
							End Site
							{
								OFFSET 0.000000 0.000000 0.000000
							}
						}
					}
				}
				JOINT LeftShoulder
				{
					OFFSET 0.000000 0.000000 0.000000
					CHANNELS 3 Zrotation Yrotation Xrotation
					JOINT LeftArm
					{
						OFFSET 3.362410 1.200890 -0.311210
						CHANNELS 3 Zrotation Yrotation Xrotation
						JOINT LeftForeArm
						{
							OFFSET 4.983000 -0.000000 -0.000000
							CHANNELS 3 Zrotation Yrotation Xrotation
							JOINT LeftHand
							{
								OFFSET 3.483560 -0.000000 -0.000000
								CHANNELS 3 Zrotation Yrotation Xrotation
								JOINT LeftFingerBase
								{
									OFFSET 0.000000 0.000000 0.000000
									CHANNELS 3 Zrotation Yrotation Xrotation
									JOINT LeftHandIndex1
									{
										OFFSET 0.715260 -0.000000 -0.000000
										CHANNELS 3 Zrotation Yrotation Xrotation
										End Site
										{
											OFFSET 0.000000 0.000000 0.000000
										}
									}
								}
								JOINT LThumb
								{
									OFFSET 0.000000 0.000000 0.000000
									CHANNELS 3 Zrotation Yrotation Xrotation
									End Site
									{
										OFFSET 0.000000 0.000000 0.000000
									}
								}
							}
						}
					}
				}
				JOINT RightShoulder
				{
					OFFSET 0.000000 0.000000 0.000000
					CHANNELS 3 Zrotation Yrotation Xrotation
					JOINT RightArm
					{
						OFFSET -3.136600 1.374050 -0.404650
						CHANNELS 3 Zrotation Yrotation Xrotation
						JOINT RightForeArm
						{
							OFFSET -5.241900 -0.000000 -0.000000
							CHANNELS 3 Zrotation Yrotation Xrotation
							JOINT RightHand
							{
								OFFSET -3.444170 -0.000000 -0.000000
								CHANNELS 3 Zrotation Yrotation Xrotation
								JOINT RightFingerBase
								{
									OFFSET 0.000000 0.000000 0.000000
									CHANNELS 3 Zrotation Yrotation Xrotation
									JOINT RightHandIndex1
									{
										OFFSET -0.622530 -0.000000 -0.000000
										CHANNELS 3 Zrotation Yrotation Xrotation
										End Site
										{
											OFFSET 0.000000 0.000000 0.000000
										}
									}
								}
								JOINT RThumb
								{
									OFFSET 0.000000 0.000000 0.000000
									CHANNELS 3 Zrotation Yrotation Xrotation
									End Site
									{
										OFFSET 0.000000 0.000000 0.000000
									}
								}
							}
						}
					}
				}
			}
		}
	}
}
MOTION
Frames: 6
Frame Time: 0.008333
3.215857 16.935023 -3.500807 -177.871503 44.890724 -157.845306 -9.801203 -0.691175 0.140904 -15.936852 2.991079 -44.162435 -2.955684 -0.103266 14.915892 1.358519 7.178910 -2.011628 1.215300 -0.000000 -11.616400 10.152621 -2.358548 -5.119723 4.501428 -18.009657 -14.178516 1.344135 -2.921273 36.047351 0.186384 6.121883 13.082566 2.027700 0.000000 -91.364800 -3.326425 1.361072 8.380938 -2.019027 1.533142 -1.357257 -7.608234 1.443945 0.606705 8.461827 6.732857 4.323957 -5.073597 -0.427786 2.672370 0.000000 0.000000 0.000000 -7.797640 -0.459853 1.767074 -64.630769 -7.601587 9.580317 -3.133165 -22.786016 -0.002150 2.975291 1.141650 0.029618 -0.053229 0.033223 -0.000000 0.000000 0.000000 0.000000 0.000000 0.000000 0.000000 20.288024 5.303551 0.080830 62.019719 23.986791 3.862919 2.904564 27.740671 0.011288 4.039093 8.597897 0.307112 0.016370 -0.118118 -0.000000 0.000000 0.000000 0.000000 0.000000 0.000000 0.000000 
3.296560 16.907473 -3.618417 -178.275783 44.812400 -158.138549 -9.703850 -0.583548 0.097598 -16.386120 2.780885 -44.590894 -2.920578 0.094660 16.792235 1.376699 7.300996 -1.910936 1.242800 0.000000 -10.409400 10.391615 -2.270172 -5.065387 3.506109 -18.254706 -14.785541 1.208049 -3.045784 37.705331 0.192851 7.323910 14.345912 2.620000 -0.000000 -92.160900 -3.859984 1.284190 8.368997 -2.145201 1.468752 -1.385200 -7.701460 1.378432 0.544035 8.627621 6.654721 4.294730 -5.142873 -0.431586 2.661191 0.000000 0.000000 0.000000 -7.578290 -0.706771 1.827439 -64.458818 -7.316778 9.726581 -3.171499 -22.227863 -0.002184 2.869294 1.301199 0.032707 -0.052529 0.032070 -0.000000 0.000000 0.000000 0.000000 0.000000 0.000000 0.000000 20.759656 5.170315 0.062985 62.583268 23.363025 3.888089 2.866596 27.909265 0.011012 4.067187 8.689800 0.312713 0.013852 -0.118426 -0.000000 0.000000 0.000000 0.000000 0.000000 0.000000 0.000000 
3.374444 16.883104 -3.733476 -178.699027 44.702825 -158.443463 -9.605864 -0.493376 0.040798 -16.827599 2.535020 -44.970848 -2.878960 0.281691 18.679216 1.407877 7.430859 -2.088076 1.227900 -0.000000 -9.511500 10.608837 -2.168429 -5.001462 2.534316 -18.344517 -15.376319 1.066746 -3.163962 39.352163 0.180359 8.516233 15.701852 3.271100 0.000000 -92.624100 -4.370286 1.206062 8.385614 -2.263586 1.402746 -1.403863 -7.782091 1.311595 0.483008 8.753098 6.580841 4.280064 -5.204381 -0.434969 2.653085 0.000000 0.000000 0.000000 -7.390162 -0.991497 1.887893 -64.265789 -7.111981 9.929573 -3.211601 -21.655365 -0.002238 2.746485 1.467509 0.035399 -0.052042 0.031378 -0.000000 0.000000 0.000000 0.000000 0.000000 0.000000 0.000000 21.157594 5.034590 0.041929 63.161100 22.770070 3.823474 2.825448 27.998318 0.010700 4.023320 8.816077 0.313914 0.011874 -0.119159 -0.000000 0.000000 0.000000 0.000000 0.000000 0.000000 0.000000 
3.448759 16.862335 -3.846151 -179.121726 44.567059 -158.752021 -9.512920 -0.423099 -0.031095 -17.243977 2.266525 -45.265489 -2.832924 0.451997 20.513857 1.451811 7.572589 -2.528287 1.171200 0.000001 -8.924600 10.798418 -2.057161 -4.930835 1.608909 -18.270205 -15.934683 0.922284 -3.274726 40.974882 0.149768 9.668347 17.125001 3.969300 -0.000000 -92.619900 -4.838078 1.130409 8.434625 -2.369966 1.338328 -1.413148 -7.847751 1.246512 0.420811 8.827280 6.532997 4.289087 -5.255812 -0.437846 2.650524 0.000000 0.000000 0.000000 -7.242053 -1.313503 1.949088 -64.059904 -6.989103 10.169005 -3.252883 -21.067014 -0.002317 2.604979 1.643048 0.037693 -0.051753 0.031214 -0.000000 0.000000 0.000000 0.000000 0.000000 0.000000 0.000000 21.458106 4.920494 0.017367 63.756549 22.184331 3.643808 2.781799 28.019023 0.010352 3.925069 8.961666 0.311416 0.010309 -0.120181 -0.000000 0.000000 0.000000 0.000000 0.000000 0.000000 0.000000 
3.518837 16.845473 -3.956760 -179.521103 44.411227 -159.051989 -9.430871 -0.373930 -0.118529 -17.618214 1.992142 -45.449125 -2.785192 0.601388 22.239192 1.506916 7.725314 -3.196567 1.075600 0.000000 -8.628400 10.955411 -1.941231 -4.856170 0.755699 -18.029562 -16.451190 0.776806 -3.377117 42.562704 0.102730 10.737070 18.581552 4.690699 -0.000000 -92.110800 -5.244014 1.060602 8.516349 -2.460464 1.278391 -1.412284 -7.897683 1.186160 0.360556 8.842313 6.515192 4.322354 -5.296964 -0.440176 2.653641 0.000000 0.000000 0.000000 -7.140753 -1.655007 2.009426 -63.850120 -6.968277 10.430578 -3.294990 -20.453919 -0.002423 2.447056 1.827694 0.039489 -0.051681 0.031659 -0.000000 0.000000 0.000000 0.000000 0.000000 0.000000 0.000000 21.651063 4.833295 -0.011326 64.364391 21.608472 3.361263 2.737645 27.971635 0.009979 3.783638 9.116039 0.305417 0.009161 -0.121315 -0.000000 0.000000 0.000000 0.000000 0.000000 0.000000 0.000000 
3.584147 16.832709 -4.065834 -179.870153 44.241265 -159.325671 -9.365745 -0.346234 -0.220286 -17.932571 1.729427 -45.510168 -2.738023 0.727679 23.810189 1.570577 7.884553 -4.042622 0.946100 0.000000 -8.589700 11.075631 -1.826221 -4.779744 0.002610 -17.626853 -16.923467 0.632144 -3.470341 44.107476 0.041384 11.666711 20.033154 5.398299 0.000000 -91.048500 -5.568318 0.999559 8.626880 -2.531312 1.225437 -1.401236 -7.932312 1.133115 0.306394 8.793708 6.527793 4.378111 -5.328459 -0.441962 2.662024 0.000000 0.000000 0.000000 -7.092179 -1.994682 2.066847 -63.644677 -7.068128 10.698634 -3.337188 -19.810577 -0.002556 2.278714 2.019611 0.040687 -0.051828 0.032775 -0.000000 0.000000 0.000000 0.000000 0.000000 0.000000 0.000000 21.733612 4.774450 -0.044406 64.974421 21.049335 2.997537 2.695627 27.856102 0.009594 3.613037 9.267793 0.296517 0.008444 -0.122365 -0.000000 0.000000 0.000000 0.000000 0.000000 0.000000 0.000000 
